<svg version="1.1" id="Layer_1" xmlns="http://www.w3.org/2000/svg" xmlns:xlink="http://www.w3.org/1999/xlink" x="0px" y="0px"
	 width="100%" viewBox="0 0 500 500" enable-background="new 0 0 500 500" xml:space="preserve">
<path fill="#000000" opacity="1.000000" stroke="none" 
	d="
M331.000000,501.000000 
	C220.666687,501.000000 110.833389,501.000000 1.000059,501.000000 
	C1.000039,334.333405 1.000039,167.666794 1.000020,1.000148 
	C167.666565,1.000099 334.333130,1.000099 500.999756,1.000049 
	C500.999847,167.666519 500.999847,334.333038 500.999939,500.999786 
	C444.500000,501.000000 388.000000,501.000000 331.000000,501.000000 
M334.999908,408.441437 
	C335.361023,404.335144 335.138092,400.066406 336.224396,396.161865 
	C337.734497,390.734314 339.707581,385.577667 344.519257,381.552826 
	C351.172424,375.987671 358.653473,375.990936 366.462799,375.957977 
	C373.855896,375.926758 381.155243,374.694519 386.366943,368.962006 
	C391.330322,363.502655 395.623932,357.428009 400.131195,351.561798 
	C407.529083,341.933350 407.280426,332.018829 400.963013,322.005371 
	C399.741486,320.069214 398.399811,318.128021 396.768005,316.545471 
	C389.299744,309.302673 383.050262,300.231567 371.741791,298.421143 
	C367.999817,297.822083 364.114685,298.132080 360.296234,297.992523 
	C350.019714,297.617035 344.185791,291.815735 344.997253,283.398865 
	C346.199982,270.923798 346.829773,258.393219 348.054688,245.920746 
	C349.255249,233.696426 351.149597,226.491287 366.991943,223.908493 
	C374.574493,222.672302 382.266052,221.340469 389.494507,218.850723 
	C406.141724,213.116852 416.766937,200.157471 416.946259,183.461411 
	C417.150024,164.489288 407.070343,151.745743 390.232269,146.196426 
	C380.509247,142.992035 370.124908,141.424210 359.908356,140.242859 
	C354.768311,139.648544 354.771332,137.290848 355.039246,133.737488 
	C355.336670,129.792938 355.713928,125.854279 355.993103,121.908569 
	C356.378174,116.466278 356.850922,111.024513 357.025574,105.574173 
	C357.431366,92.911285 358.228699,80.225426 357.814148,67.583420 
	C357.503479,58.109612 352.170197,50.987324 342.881714,48.180573 
	C333.946503,45.480579 325.385773,46.170071 318.079437,53.306198 
	C311.331146,59.897266 307.987518,68.216301 304.994049,76.764763 
	C299.892822,91.332306 295.113800,106.013557 289.927948,120.550209 
	C287.533081,127.263252 283.312622,133.979492 276.135742,134.639984 
	C263.986359,135.758087 251.642807,134.766373 239.000046,134.658371 
	C239.000046,131.295410 239.024109,129.323212 238.996368,127.351753 
	C238.668839,104.076073 239.030975,80.762115 237.752472,57.538559 
	C236.915192,42.329510 228.092972,33.509422 214.220032,31.154106 
	C198.855042,28.545464 185.985016,35.897964 182.064514,50.185963 
	C175.823517,72.930634 170.239578,95.875931 165.133118,118.903893 
	C162.088043,132.635849 157.025925,137.529892 142.864960,138.070877 
	C134.629318,138.385498 126.360451,138.988083 118.213905,140.189255 
	C107.675980,141.743027 97.252960,144.065979 86.766411,145.980774 
	C71.683609,148.734848 58.853405,156.115463 56.325676,174.711807 
	C54.698200,186.685043 57.322613,197.312988 67.678276,205.538803 
	C77.538094,213.370728 89.179657,216.208466 100.757042,218.764084 
	C115.473412,222.012589 130.528458,223.756546 145.468704,225.935135 
	C148.337082,226.353424 149.299789,227.510757 148.866943,230.145584 
	C145.914764,248.116562 142.959839,266.087128 139.977707,284.053162 
	C138.367004,293.756836 131.459167,299.542816 121.528732,300.040375 
	C112.132179,300.511139 102.649208,300.685791 93.391205,302.162689 
	C79.066154,304.447937 70.144569,309.805542 66.184532,324.754028 
	C61.662350,341.824554 69.240417,359.230103 86.888474,366.631378 
	C94.843468,369.967621 102.787910,374.082977 109.539886,379.372925 
	C122.588264,389.596008 126.151428,404.610840 126.900909,420.326843 
	C127.187286,426.331970 126.813965,432.389221 131.105850,437.177734 
	C136.905350,443.648254 142.245682,451.595886 152.611603,449.895142 
	C166.567657,447.605347 177.290939,440.500763 183.054459,427.066895 
	C187.135574,417.554474 190.659546,407.762115 195.362808,398.570923 
	C198.928162,391.603455 203.164978,384.703857 212.974899,384.799133 
	C224.080719,384.907074 235.193100,384.279816 246.303574,384.011383 
	C249.404709,383.936462 252.509201,384.000000 256.000000,384.000000 
	C256.000000,398.700897 255.749420,412.677734 256.081818,426.640686 
	C256.333191,437.199829 256.295990,447.934662 258.226471,458.247009 
	C261.430542,475.362396 272.143250,483.689148 288.880127,484.918030 
	C304.704285,486.079865 315.558807,477.706116 321.735779,464.165741 
	C329.618500,446.886169 333.488953,428.347809 334.999908,408.441437 
z"/>
<path fill="#5226A8" opacity="1.000000" stroke="none" 
	d="
M334.999725,408.909668 
	C333.488953,428.347809 329.618500,446.886169 321.735779,464.165741 
	C315.558807,477.706116 304.704285,486.079865 288.880127,484.918030 
	C272.143250,483.689148 261.430542,475.362396 258.226471,458.247009 
	C256.295990,447.934662 256.333191,437.199829 256.081818,426.640686 
	C255.749420,412.677734 256.000000,398.700897 256.000000,384.000000 
	C252.509201,384.000000 249.404709,383.936462 246.303574,384.011383 
	C235.193100,384.279816 224.080719,384.907074 212.974899,384.799133 
	C203.164978,384.703857 198.928162,391.603455 195.362808,398.570923 
	C190.659546,407.762115 187.135574,417.554474 183.054459,427.066895 
	C177.290939,440.500763 166.567657,447.605347 152.611603,449.895142 
	C142.245682,451.595886 136.905350,443.648254 131.105850,437.177734 
	C126.813965,432.389221 127.187286,426.331970 126.900909,420.326843 
	C126.151428,404.610840 122.588264,389.596008 109.539886,379.372925 
	C102.787910,374.082977 94.843468,369.967621 86.888474,366.631378 
	C69.240417,359.230103 61.662350,341.824554 66.184532,324.754028 
	C70.144569,309.805542 79.066154,304.447937 93.391205,302.162689 
	C102.649208,300.685791 112.132179,300.511139 121.528732,300.040375 
	C131.459167,299.542816 138.367004,293.756836 139.977707,284.053162 
	C142.959839,266.087128 145.914764,248.116562 148.866943,230.145584 
	C149.299789,227.510757 148.337082,226.353424 145.468704,225.935135 
	C130.528458,223.756546 115.473412,222.012589 100.757042,218.764084 
	C89.179657,216.208466 77.538094,213.370728 67.678276,205.538803 
	C57.322613,197.312988 54.698200,186.685043 56.325676,174.711807 
	C58.853405,156.115463 71.683609,148.734848 86.766411,145.980774 
	C97.252960,144.065979 107.675980,141.743027 118.213905,140.189255 
	C126.360451,138.988083 134.629318,138.385498 142.864960,138.070877 
	C157.025925,137.529892 162.088043,132.635849 165.133118,118.903893 
	C170.239578,95.875931 175.823517,72.930634 182.064514,50.185963 
	C185.985016,35.897964 198.855042,28.545464 214.220032,31.154106 
	C228.092972,33.509422 236.915192,42.329510 237.752472,57.538559 
	C239.030975,80.762115 238.668839,104.076073 238.996368,127.351753 
	C239.024109,129.323212 239.000046,131.295410 239.000046,134.658371 
	C251.642807,134.766373 263.986359,135.758087 276.135742,134.639984 
	C283.312622,133.979492 287.533081,127.263252 289.927948,120.550209 
	C295.113800,106.013557 299.892822,91.332306 304.994049,76.764763 
	C307.987518,68.216301 311.331146,59.897266 318.079437,53.306198 
	C325.385773,46.170071 333.946503,45.480579 342.881714,48.180573 
	C352.170197,50.987324 357.503479,58.109612 357.814148,67.583420 
	C358.228699,80.225426 357.431366,92.911285 357.025574,105.574173 
	C356.850922,111.024513 356.378174,116.466278 355.993103,121.908569 
	C355.713928,125.854279 355.336670,129.792938 355.039246,133.737488 
	C354.771332,137.290848 354.768311,139.648544 359.908356,140.242859 
	C370.124908,141.424210 380.509247,142.992035 390.232269,146.196426 
	C407.070343,151.745743 417.150024,164.489288 416.946259,183.461411 
	C416.766937,200.157471 406.141724,213.116852 389.494507,218.850723 
	C382.266052,221.340469 374.574493,222.672302 366.991943,223.908493 
	C351.149597,226.491287 349.255249,233.696426 348.054688,245.920746 
	C346.829773,258.393219 346.199982,270.923798 344.997253,283.398865 
	C344.185791,291.815735 350.019714,297.617035 360.296234,297.992523 
	C364.114685,298.132080 367.999817,297.822083 371.741791,298.421143 
	C383.050262,300.231567 389.299744,309.302673 396.768005,316.545471 
	C398.399811,318.128021 399.741486,320.069214 400.963013,322.005371 
	C407.280426,332.018829 407.529083,341.933350 400.131195,351.561798 
	C395.623932,357.428009 391.330322,363.502655 386.366943,368.962006 
	C381.155243,374.694519 373.855896,375.926758 366.462799,375.957977 
	C358.653473,375.990936 351.172424,375.987671 344.519257,381.552826 
	C339.707581,385.577667 337.734497,390.734314 336.224396,396.161865 
	C335.138092,400.066406 335.361023,404.335144 334.999725,408.909668 
M242.934708,227.101425 
	C234.413406,228.596237 230.628586,234.623825 229.127426,242.287735 
	C226.861786,253.854568 224.914124,265.488251 223.071045,277.131470 
	C222.109802,283.203827 221.661194,289.357300 220.924866,295.979126 
	C230.750854,295.979126 239.888657,296.380890 248.974609,295.866638 
	C258.139069,295.347961 262.646606,291.444519 264.105804,282.527313 
	C266.434662,268.295624 268.103943,253.954834 269.972412,239.649765 
	C270.452606,235.973434 270.634918,232.258179 270.957428,228.521942 
	C261.545593,228.004379 252.665619,227.516052 242.934708,227.101425 
z"/>
<path fill="#000000" opacity="1.000000" stroke="none" 
	d="
M243.360184,227.064575 
	C252.665619,227.516052 261.545593,228.004379 270.957428,228.521942 
	C270.634918,232.258179 270.452606,235.973434 269.972412,239.649765 
	C268.103943,253.954834 266.434662,268.295624 264.105804,282.527313 
	C262.646606,291.444519 258.139069,295.347961 248.974609,295.866638 
	C239.888657,296.380890 230.750854,295.979126 220.924866,295.979126 
	C221.661194,289.357300 222.109802,283.203827 223.071045,277.131470 
	C224.914124,265.488251 226.861786,253.854568 229.127426,242.287735 
	C230.628586,234.623825 234.413406,228.596237 243.360184,227.064575 
z"/>
</svg>